<svg xmlns="http://www.w3.org/2000/svg" width="42" height="42" viewBox="0 0 42 42">
  <g fill="#a6399d">
    <path d="M21,0 C22.1597979,0 23.1,0.940202025 23.1,2.1 L23.1,12.6 C23.1,13.759798 22.1597979,14.7 21,14.7 C19.840202,14.7 18.9,13.759798 18.9,12.6 L18.9,2.1 C18.9,0.940202025 19.840202,0 21,0 Z"/>
    <path d="M21,27.3 C22.1597979,27.3 23.1,28.2402021 23.1,29.4 L23.1,39.9 C23.1,41.0597979 22.1597979,42 21,42 C19.840202,42 18.9,41.0597979 18.9,39.9 L18.9,29.4 C18.9,28.2402021 19.840202,27.3 21,27.3 Z" opacity=".64"/>
    <path d="M27.3,21 C27.3,19.840202 28.2402021,18.9 29.4,18.9 L39.9,18.9 C41.0597979,18.9 42,19.840202 42,21 C42,22.1597979 41.0597979,23.1 39.9,23.1 L29.4,23.1 C28.2402021,23.1 27.3,22.1597979 27.3,21 Z" opacity=".82"/>
    <path d="M-9.32587341e-16,21 C-9.32587341e-16,19.840202 0.940202025,18.9 2.1,18.9 L12.6,18.9 C13.759798,18.9 14.7,19.840202 14.7,21 C14.7,22.1597979 13.759798,23.1 12.6,23.1 L2.1,23.1 C0.940202025,23.1 -9.32587341e-16,22.1597979 -9.32587341e-16,21 Z" opacity=".46"/>
    <path d="M6.15116517,6.15116517 C6.97126618,5.33106414 8.30091263,5.33106414 9.12101364,6.15116517 L16.5456348,13.5757864 C17.3657359,14.3958874 17.3657359,15.7255338 16.5456348,16.5456348 C15.7255338,17.3657359 14.3958874,17.3657359 13.5757864,16.5456348 L6.15116517,9.12101364 C5.33106414,8.30091263 5.33106414,6.97126618 6.15116517,6.15116517 Z" opacity=".37"/>
    <path d="M25.4543652,25.4543652 C26.2744663,24.6342642 27.6041125,24.6342642 28.4242136,25.4543652 L35.8488348,32.8789864 C36.6689358,33.6990875 36.6689358,35.0287337 35.8488348,35.8488348 C35.0287337,36.6689358 33.6990875,36.6689358 32.8789864,35.8488348 L25.4543652,28.4242136 C24.6342642,27.6041125 24.6342642,26.2744663 25.4543652,25.4543652 Z" opacity=".73"/>
    <path d="M25.4543652,16.5456348 C24.6342642,15.7255338 24.6342642,14.3958874 25.4543652,13.5757864 L32.8789864,6.15116517 C33.6990875,5.33106414 35.0287337,5.33106414 35.8488348,6.15116517 C36.6689358,6.97126618 36.6689358,8.30091263 35.8488348,9.12101364 L28.4242136,16.5456348 C27.6041125,17.3657359 26.2744663,17.3657359 25.4543652,16.5456348 Z" opacity=".91"/>
    <path d="M6.15116517,35.8488348 C5.33106414,35.0287337 5.33106414,33.6990875 6.15116517,32.8789864 L13.5757864,25.4543652 C14.3958874,24.6342642 15.7255338,24.6342642 16.5456348,25.4543652 C17.3657359,26.2744663 17.3657359,27.6041125 16.5456348,28.4242136 L9.12101364,35.8488348 C8.30091263,36.6689358 6.97126618,36.6689358 6.15116517,35.8488348 Z" opacity=".55"/>
  </g>
</svg>
