<svg width="1022" height="1022" viewBox="0 0 1022 1022" fill="none" xmlns="http://www.w3.org/2000/svg">
<path fill-rule="evenodd" clip-rule="evenodd" d="M1022 511C1022 895 895 1022 511 1022C127 1022 0 895 0 511C0 127 127 0 511 0C895 0 1022 127 1022 511ZM179.523 536.539C211.399 452.513 284.673 410.5 399.328 410.5C510.019 410.5 560.714 449.663 604.509 483.496L604.52 483.505C631.39 504.269 655.687 523.036 689.664 529.511C749.215 540.839 801.328 523.841 846 478.504C816.224 569.177 741.776 614.5 622.672 614.5C511.963 614.5 461.286 575.35 417.491 541.517L417.48 541.509C390.61 520.731 366.313 501.964 332.319 495.502C272.785 484.175 220.673 501.173 176 546.509C177.112 543.122 178.287 539.799 179.523 536.539Z" fill="#FF6300"/>
</svg>
