<svg xmlns="http://www.w3.org/2000/svg" width="128" height="123" viewBox="0 0 128 123">
  <path fill="#444" d="M116.363636,122.181818 L95.6363635,122.181818 L97.090909,104.727272 L86.909091,104.727272 L85.4545455,122.181818 L42.5454546,122.181818 L41.0909091,104.727272 L30.9090909,104.727272 L32.3636364,122.181818 L11.6363636,122.181818 L0,46.5454545 L29.0909091,0 L98.909091,0 L128,46.5454545 L116.363636,122.181818 Z M93.090909,23.2727272 L74.3894545,23.2727272 L75.6363635,32 L52.3636365,32 L53.6105455,23.2727272 L34.9090909,23.2727272 L23.2727273,46.5454545 L29.0909091,93.090909 L98.909091,93.090909 L104.727272,46.5454545 L93.090909,23.2727272 Z M82.909091,77.6436365 C81.3025455,77.6436365 80,72.7985455 80,66.821818 C80,60.845091 81.3025455,56 82.909091,56 C84.5156365,56 85.818182,60.845091 85.818182,66.821818 C85.818182,72.7985455 84.5156365,77.6436365 82.909091,77.6436365 Z M46.1818182,78.5454545 C44.5752728,78.5454545 43.2727273,73.7003635 43.2727273,67.7236365 C43.2727273,61.746909 44.5752728,56.901818 46.1818182,56.901818 C47.7883637,56.901818 49.0909091,61.746909 49.0909091,67.7236365 C49.0909091,73.7003635 47.7883637,78.5454545 46.1818182,78.5454545 Z"/>
</svg>
