<svg xmlns="http://www.w3.org/2000/svg" width="96" height="96" viewBox="0 0 96 96">
  <path fill="#b540ab" d="M0,48 C0,36.4636449 4.06978792,25.8778397 10.8519482,17.6 L85.1480516,17.6 L32.1507655,93.3217125 C13.4289751,86.775087 0,68.9557961 0,48 Z M89.085897,23.1679774 C93.4740563,30.4128665 96,38.9114501 96,48 C96,74.5096676 74.5096676,96 48,96 C44.8240095,96 41.7200625,95.6915445 38.7164828,95.1029561 L89.085897,23.1679774 Z M17.1800565,11.2 C25.5183849,4.20926332 36.2676294,0 48,0 C59.7323708,0 70.4816152,4.20926332 78.8199435,11.2 L17.1800565,11.2 L17.1800565,11.2 Z"/>
</svg>
