<svg xmlns="http://www.w3.org/2000/svg" xmlns:xlink="http://www.w3.org/1999/xlink" width="120" height="42" viewBox="0 0 120 42">
  <defs>
    <path id="button-a" d="M0.573242188,0.317382812 L0.573242188,13 L2.541,13 L5.78515625,13 C6.6875,13 7.4609375,12.8564453 8.10546875,12.5693359 C8.75,12.2822266 9.24658203,11.8706055 9.59521484,11.3344727 C9.94384766,10.7983398 10.1181641,10.1611328 10.1181641,9.42285156 L10.1181641,9.40527344 C10.1181641,8.85449219 9.99804688,8.36083984 9.7578125,7.92431641 C9.51757812,7.48779297 9.18359375,7.13183594 8.75585938,6.85644531 C8.328125,6.58105469 7.82714844,6.4140625 7.25292969,6.35546875 L7.25292969,6.20605469 C7.67480469,6.13574219 8.05273438,5.97021484 8.38671875,5.70947266 C8.72070312,5.44873047 8.98730469,5.125 9.18652344,4.73828125 C9.38574219,4.3515625 9.48535156,3.93554688 9.48535156,3.49023437 L9.48535156,3.47265625 C9.48535156,2.828125 9.33300781,2.27001953 9.02832031,1.79833984 C8.72363281,1.32666016 8.28710938,0.961914062 7.71875,0.704101562 C7.15039062,0.446289062 6.46777344,0.317382812 5.67089844,0.317382812 L2.54199219,0.317382812 L1.55761719,0.317382812 L0.573242188,0.317382812 Z M2.541,1.926 L5.21386719,1.92578125 C5.94042969,1.92578125 6.50585938,2.09130859 6.91015625,2.42236328 C7.31445312,2.75341797 7.51660156,3.21484375 7.51660156,3.80664062 L7.51660156,3.82421875 C7.51660156,4.43945312 7.29394531,4.90820312 6.84863281,5.23046875 C6.40332031,5.55273438 5.74414062,5.71386719 4.87109375,5.71386719 L2.541,5.714 L2.541,1.926 Z M2.541,7.217 L5.26660156,7.21679688 C5.88769531,7.21679688 6.40771484,7.29443359 6.82666016,7.44970703 C7.24560547,7.60498047 7.56054688,7.83496094 7.77148438,8.13964844 C7.98242188,8.44433594 8.08789062,8.82519531 8.08789062,9.28222656 L8.08789062,9.29980469 C8.08789062,9.97949219 7.859375,10.4980469 7.40234375,10.8554688 C6.9453125,11.2128906 6.27148438,11.3916016 5.38085938,11.3916016 L2.541,11.392 L2.541,7.217 Z M17.28125,13.3076172 C18.3476562,13.3076172 19.2631836,13.1113281 20.027832,12.71875 C20.7924805,12.3261719 21.3813477,11.7783203 21.7944336,11.0751953 C22.2075195,10.3720703 22.4140625,9.55761719 22.4140625,8.63183594 L22.4140625,0.317382812 L20.4365234,0.317382812 L20.4365234,8.47363281 C20.4365234,9.39355469 20.1640625,10.1376953 19.6191406,10.7060547 C19.0742188,11.2744141 18.2949219,11.5585938 17.28125,11.5585938 C16.2792969,11.5585938 15.5014648,11.2744141 14.9477539,10.7060547 C14.394043,10.1376953 14.1171875,9.39355469 14.1171875,8.47363281 L14.1171875,0.317382812 L12.1396484,0.317382812 L12.1396484,8.63183594 C12.1396484,9.55761719 12.3476562,10.3720703 12.7636719,11.0751953 C13.1796875,11.7783203 13.7714844,12.3261719 14.5390625,12.71875 C15.3066406,13.1113281 16.2207031,13.3076172 17.28125,13.3076172 Z M30.2890625,13 L30.2890625,2.02246094 L34.2617188,2.02246094 L34.2617188,0.317382812 L24.3300781,0.317382812 L24.3300781,2.02246094 L28.3115234,2.02246094 L28.3115234,13 L30.2890625,13 Z M41.3896484,13 L41.3896484,2.02246094 L45.3623047,2.02246094 L45.3623047,0.317382812 L35.4306641,0.317382812 L35.4306641,2.02246094 L39.4121094,2.02246094 L39.4121094,13 L41.3896484,13 Z M52.2001953,13.3076172 C53.4248047,13.3076172 54.4794922,13.0351562 55.3642578,12.4902344 C56.2490234,11.9453125 56.9301758,11.1762695 57.4077148,10.1831055 C57.8852539,9.18994141 58.1240234,8.01660156 58.1240234,6.66308594 L58.1240234,6.64550781 C58.1240234,5.28613281 57.8837891,4.10986328 57.4033203,3.11669922 C56.9228516,2.12353516 56.2402344,1.35742188 55.3554688,0.818359375 C54.4707031,0.279296875 53.4189453,0.009765625 52.2001953,0.009765625 C50.9873047,0.009765625 49.9370117,0.279296875 49.0493164,0.818359375 C48.1616211,1.35742188 47.4775391,2.12353516 46.9970703,3.11669922 C46.5166016,4.10986328 46.2763672,5.28613281 46.2763672,6.64550781 L46.2763672,6.66308594 C46.2763672,8.01660156 46.5151367,9.19140625 46.9926758,10.1875 C47.4702148,11.1835938 48.1499023,11.9526367 49.0317383,12.4946289 C49.9135742,13.0366211 50.9697266,13.3076172 52.2001953,13.3076172 Z M52.2001953,11.5585938 C51.3916016,11.5585938 50.6943359,11.3564453 50.1083984,10.9521484 C49.5224609,10.5478516 49.0727539,9.97802734 48.7592773,9.24267578 C48.4458008,8.50732422 48.2890625,7.64746094 48.2890625,6.66308594 L48.2890625,6.64550781 C48.2890625,5.64941406 48.4501953,4.78662109 48.7724609,4.05712891 C49.0947266,3.32763672 49.5473633,2.76220703 50.1303711,2.36083984 C50.7133789,1.95947266 51.4033203,1.75878906 52.2001953,1.75878906 C53.0029297,1.75878906 53.6958008,1.95947266 54.2788086,2.36083984 C54.8618164,2.76220703 55.3115234,3.32763672 55.6279297,4.05712891 C55.9443359,4.78662109 56.1025391,5.64941406 56.1025391,6.64550781 L56.1025391,6.66308594 C56.1025391,7.64746094 55.9443359,8.50732422 55.6279297,9.24267578 C55.3115234,9.97802734 54.8618164,10.5478516 54.2788086,10.9521484 C53.6958008,11.3564453 53.0029297,11.5585938 52.2001953,11.5585938 Z M62.0966797,0.317382812 L60.3125,0.317382812 L60.3125,13 L62.2285156,13 L62.2285156,3.7890625 L62.37,3.79 L68.8818359,13 L70.6660156,13 L70.6660156,0.317382812 L68.7412109,0.317382812 L68.7412109,9.53710938 L68.6,9.538 L62.0966797,0.317382812 Z"/>
  </defs>
  <g fill="none">
    <rect width="120" height="42" fill="#FF6300" rx="21"/>
    <g transform="translate(25 15)">
      <use fill="#000" xlink:href="#button-a"/>
      <use fill="#FFF" xlink:href="#button-a"/>
    </g>
  </g>
</svg>
