<svg xmlns="http://www.w3.org/2000/svg" xmlns:xlink="http://www.w3.org/1999/xlink" width="161" height="42" viewBox="0 0 161 42">
  <defs>
    <path id="input-a" d="M3.81445312,13.3427734 C5.49023438,13.3427734 6.62695312,12.7919922 7.22460938,11.6904297 C7.546875,11.0869141 7.70800781,10.2402344 7.70800781,9.15039062 L7.70800781,9.15039062 L7.70800781,0.0888671875 L5.9765625,0.0888671875 L5.9765625,8.69335938 C5.9765625,9.78320312 5.88867188,10.5244141 5.71289062,10.9169922 C5.42578125,11.5556641 4.81640625,11.875 3.88476562,11.875 C3.22265625,11.875 2.73486328,11.6977539 2.42138672,11.3432617 C2.10791016,10.9887695 1.95117188,10.4599609 1.95117188,9.75683594 L1.95117188,9.75683594 L1.95117188,8.83398438 L0.307617188,8.83398438 L0.307617188,9.75683594 C0.307617188,11.0986328 0.650390625,12.0317383 1.3359375,12.5561523 C2.02148438,13.0805664 2.84765625,13.3427734 3.81445312,13.3427734 Z M13.7460938,13.3427734 C15.2988281,13.3427734 16.4443359,12.8476562 17.1826172,11.8574219 C17.9208984,10.8671875 18.2900391,9.61328125 18.2900391,8.09570312 C18.2900391,6.52539062 17.8710938,5.3359375 17.0332031,4.52734375 C16.1953125,3.71875 15.1699219,3.31445312 13.9570312,3.31445312 C12.6035156,3.31445312 11.5253906,3.78320312 10.7226562,4.72070312 C9.91992188,5.65820312 9.51855469,6.91796875 9.51855469,8.5 C9.51855469,9.9765625 9.89941406,11.152832 10.6611328,12.0288086 C11.4228516,12.9047852 12.4511719,13.3427734 13.7460938,13.3427734 Z M13.8955078,11.9804688 C12.9404297,11.9804688 12.2431641,11.6464844 11.8037109,10.9785156 C11.3642578,10.3105469 11.1445312,9.47558594 11.1445312,8.47363281 C11.1445312,7.43066406 11.3642578,6.54003906 11.8037109,5.80175781 C12.2431641,5.06347656 12.9462891,4.69433594 13.9130859,4.69433594 C15.0029297,4.69433594 15.7705078,5.12792969 16.2158203,5.99511719 C16.4970703,6.54589844 16.6376953,7.26074219 16.6376953,8.13964844 C16.6376953,9.11230469 16.4428711,9.99560547 16.0532227,10.7895508 C15.6635742,11.5834961 14.9443359,11.9804688 13.8955078,11.9804688 Z M21.7529297,13 L21.7529297,8.0078125 C21.7529297,6.75390625 22.0195312,5.90136719 22.5527344,5.45019531 C23.0859375,4.99902344 23.6806641,4.7734375 24.3369141,4.7734375 C25.1279297,4.7734375 25.6669922,5.03125 25.9541016,5.546875 C26.1298828,5.86914062 26.2177734,6.37597656 26.2177734,7.06738281 L26.2177734,7.06738281 L26.2177734,13 L27.84375,13 L27.84375,6.96191406 C27.84375,6.03613281 27.7119141,5.3125 27.4482422,4.79101562 C26.9619141,3.8359375 26.0361328,3.35839844 24.6708984,3.35839844 C23.9091797,3.35839844 23.2734375,3.52539062 22.7636719,3.859375 C22.4648438,4.05273438 22.1279297,4.38671875 21.7529297,4.86132812 L21.7529297,4.86132812 L21.7529297,0.044921875 L20.1708984,0.044921875 L20.1708984,13 L21.7529297,13 Z M31.7636719,13 L31.7636719,8.06933594 C31.7636719,7.45410156 31.8032227,6.98095703 31.8823242,6.64990234 C31.9614258,6.31884766 32.1328125,5.99804688 32.3964844,5.6875 C32.7246094,5.30078125 33.1054688,5.04296875 33.5390625,4.9140625 C33.7792969,4.83789062 34.0869141,4.79980469 34.4619141,4.79980469 C35.2001953,4.79980469 35.7099609,5.09277344 35.9912109,5.67871094 C36.1611328,6.03027344 36.2460938,6.49316406 36.2460938,7.06738281 L36.2460938,7.06738281 L36.2460938,13 L37.8544922,13 L37.8544922,6.96191406 C37.8544922,6.01269531 37.7255859,5.28320312 37.4677734,4.7734375 C36.9990234,3.84179688 36.0966797,3.37597656 34.7607422,3.37597656 C34.1513672,3.37597656 33.5976562,3.49609375 33.0996094,3.73632812 C32.6015625,3.9765625 32.1298828,4.37207031 31.6845703,4.92285156 L31.6845703,4.92285156 L31.6845703,3.58691406 L30.1816406,3.58691406 L30.1816406,13 L31.7636719,13 Z M50.6953125,13 C52.9101562,13 54.4716797,12.0214844 55.3798828,10.0644531 C55.8955078,8.95703125 56.1533203,7.71777344 56.1533203,6.34667969 C56.1533203,4.57128906 55.7167969,3.11523438 54.84375,1.97851562 C53.8652344,0.71875 52.4882812,0.0888671875 50.7128906,0.0888671875 L50.7128906,0.0888671875 L45.4833984,0.0888671875 L45.4833984,13 L50.6953125,13 Z M50.3613281,11.5058594 L47.2412109,11.5058594 L47.2412109,1.59179688 L50.34375,1.59179688 C51.7558594,1.59179688 52.7797852,2.03417969 53.4155273,2.91894531 C54.0512695,3.80371094 54.3691406,5.04589844 54.3691406,6.64550781 C54.3691406,7.06152344 54.3251953,7.51269531 54.2373047,7.99902344 C54.0849609,8.81347656 53.8359375,9.48144531 53.4902344,10.0029297 C53.0566406,10.6533203 52.5,11.0927734 51.8203125,11.3212891 C51.4394531,11.4443359 50.953125,11.5058594 50.3613281,11.5058594 L50.3613281,11.5058594 Z"/>
  </defs>
  <g fill="none">
    <path fill="#FF6300" d="M150,0 L11,0 C4.92486775,0 0,4.92486775 0,11 L0,31 C0,37.0751322 4.92486775,42 11,42 L150,42 C156.075132,42 161,37.0751322 161,31 L161,11 C161,4.92486775 156.075132,0 150,0 Z M11,2 L150,2 C154.970563,2 159,6.02943725 159,11 L159,31 C159,35.9705627 154.970563,40 150,40 L11,40 C6.02943725,40 2,35.9705627 2,31 L2,11 C2,6.02943725 6.02943725,2 11,2 Z"/>
    <g transform="translate(17 14)">
      <use fill="#B44600" xlink:href="#input-a"/>
      <use fill="#80030C" xlink:href="#input-a"/>
    </g>
    <rect width="2" height="22" x="81" y="10" fill="#EE350F" opacity=".927"/>
  </g>
</svg>
