<svg xmlns="http://www.w3.org/2000/svg" width="121" height="128" viewBox="0 0 121 128">
  <g fill="none">
    <polygon fill="#E23237" points=".047 21.422 59.251 .328 120.049 21.047 110.205 99.377 59.251 127.596 9.094 99.752"/>
    <polygon fill="#B52E31" points="120.049 21.047 59.251 .328 59.251 127.596 110.205 99.423"/>
    <path fill="#FFF" d="M59.3446555,15.1877318 L59.3446555,15.1877318 L22.4534676,97.2671092 L36.2349279,97.0327308 L43.6412909,78.5168231 L59.3915313,78.5168231 L59.4384071,78.5168231 L76.7355459,78.5168231 L84.8450447,97.2671092 L98.0171205,97.5014875 L59.3446555,15.1877318 L59.3446555,15.1877318 Z M59.4384071,41.485008 L71.9073473,67.5479059 L59.95404,67.5479059 L59.3446555,67.5479059 L48.4694894,67.5479059 L59.4384071,41.485008 L59.4384071,41.485008 Z"/>
  </g>
</svg>
