<svg xmlns="http://www.w3.org/2000/svg" width="106" height="128" viewBox="0 0 106 128">
  <path d="M86.8788395,67.8728911 C87.058367,87.2064593 103.839485,93.6401835 104.025397,93.7223018 C103.883505,94.1760435 101.344054,102.890989 95.1843068,111.892905 C89.8594763,119.675518 84.3330044,127.429621 75.6271783,127.590215 C67.0728334,127.747837 64.3221341,122.517467 54.5420963,122.517467 C44.7650125,122.517467 41.7088605,127.429608 33.6112204,127.747837 C25.2078896,128.065833 18.8088414,119.331972 13.4397594,111.577869 C2.46869056,95.7165893 -5.91547607,66.757619 5.34234047,47.2098418 C10.9349836,37.5023361 20.9294595,31.3551383 31.7775695,31.1975049 C40.0294256,31.0400998 47.8181969,36.7490784 52.8626611,36.7490784 C57.9039269,36.7490784 67.3689417,29.8835313 77.3191627,30.8918237 C81.4846651,31.0651959 93.1772989,32.5744509 100.68546,43.5644501 C100.080488,43.9394877 86.7337549,51.7093201 86.8788395,67.8729094 M70.8019371,20.3982032 C75.2633218,14.9978745 78.2660909,7.4801176 77.4469031,0 C71.0161522,0.258458504 63.2399295,4.28527376 58.6272951,9.68263135 C54.4934888,14.4622429 50.8732038,22.1123159 51.8500194,29.4443858 C59.0178462,29.9989509 66.3403329,25.8019662 70.8019371,20.398212" transform="translate(.069)"/>
</svg>
