<svg xmlns="http://www.w3.org/2000/svg" width="128" height="128" viewBox="0 0 128 128">
  <g fill="none">
    <polygon fill="#53B9FF" points="19.931 27.057 .155 46.858 30.653 77.447 0 108.193 19.714 128.002 50.429 97.249 80.978 127.782 100.754 107.981"/>
    <polygon fill="#119EFF" points="70.259 77.448 50.43 97.249 80.978 127.783 100.754 107.982"/>
    <polygon fill="#000" fill-opacity=".2" points="70.259 77.448 50.43 97.249 58.063 104.839"/>
    <polygon fill="#53B9FF" points="97.285 50.493 128 19.739 108.215 0 77.509 30.692 46.958 .155 27.182 19.956 108.005 100.881 127.781 81.079"/>
    <polygon fill="#119EFF" points="57.68 50.493 77.509 30.693 46.958 .156 27.182 19.957"/>
    <polygon fill="#000" fill-opacity=".2" points="57.679 50.493 77.509 30.692 69.874 23.099"/>
  </g>
</svg>
