<svg xmlns="http://www.w3.org/2000/svg" width="126" height="128" viewBox="0 0 126 128">
  <g fill="none">
    <path fill="#4285F4" d="M125.009099,65.1974351 C125.009099,59.9533435 124.583573,56.1265344 123.662656,52.1580458 L63.7801527,52.1580458 L63.7801527,75.8272977 L98.9298321,75.8272977 C98.2214351,81.7094351 94.394626,90.5678168 85.8904427,96.5203053 L85.7712366,97.3127328 L104.704977,111.980458 L106.016733,112.111389 C118.063878,100.98516 125.009099,84.6148397 125.009099,65.1974351"/>
    <path fill="#34A853" d="M63.7801527,127.560305 C81.0005496,127.560305 95.4572214,121.890687 106.016733,112.111389 L85.8904427,96.5203053 C80.5046718,100.276275 73.2760916,102.898321 63.7801527,102.898321 C46.9139542,102.898321 32.5989618,91.7725802 27.4960611,76.3945038 L26.7480916,76.4580153 L7.06051908,91.6944122 L6.80305344,92.4101374 C17.2912366,113.244824 38.8348092,127.560305 63.7801527,127.560305"/>
    <path fill="#FBBC05" d="M27.4960611,76.3945038 C26.1496183,72.4260153 25.3703817,68.1736794 25.3703817,63.7801527 C25.3703817,59.3861374 26.1496183,55.1342901 27.4252214,51.1658015 L27.3895573,50.3206107 L7.45526718,34.8394504 L6.80305344,35.1496794 C2.48036641,43.795542 0,53.5044885 0,63.7801527 C0,74.0558168 2.48036641,83.7642748 6.80305344,92.4101374 L27.4960611,76.3945038"/>
    <path fill="#EB4335" d="M63.7801527,24.6614962 C75.756458,24.6614962 83.8351145,29.8347481 88.4416489,34.1579237 L106.441771,16.5828397 C95.3868702,6.30717557 81.0005496,0 63.7801527,0 C38.8348092,0 17.2912366,14.3149924 6.80305344,35.1496794 L27.4252214,51.1658015 C32.5989618,35.7877252 46.9139542,24.6614962 63.7801527,24.6614962"/>
  </g>
</svg>
