<svg xmlns="http://www.w3.org/2000/svg" width="96" height="96" viewBox="0 0 96 96">
  <path fill="#3880FF" d="M48.0568721,0.000441124556 C55.8483413,0.000441124556 63.1848341,1.82123905 70.0663507,5.34730539 L70.0663507,5.34730539 L70.9763033,5.80228171 L70.1800946,6.42787411 C68.2464454,7.96341916 66.7109006,9.95394046 65.744076,12.228822 L65.744076,12.228822 L65.4597158,12.8544144 L64.8909953,12.5700542 C59.6018959,10.0676846 53.9715641,8.75962767 48.1137442,8.75962767 C26.4454976,8.75962767 8.87203793,26.3899594 8.87203793,48.001334 C8.87203793,69.6127081 26.3886256,87.2430399 48.0568721,87.2430399 C69.7251184,87.2430399 87.2985784,69.6127081 87.2985784,48.001334 C87.2985784,42.8259785 86.3317534,37.7643669 84.2843603,32.9871158 L84.2843603,32.9871158 L84,32.3615234 L84.6255923,32.0771632 C86.957346,31.2240827 89.0047395,29.8022817 90.6540285,27.9823765 L90.6540285,27.9823765 L91.2796207,27.186168 L91.6777253,28.0961206 C94.5781991,34.4089168 96,41.1198174 96,47.8875897 C96,74.3330874 74.4454976,95.8875897 48,95.8875897 C21.5545024,95.8875897 0,74.3330874 0,47.8875897 C0,21.4420921 21.5545024,-0.112410237 48.0568721,0.000441124556 Z M48.0568721,26.1624713 C60.0568721,26.1624713 69.8957347,35.9444618 69.9526065,48.0582057 C69.9526065,60.17195 60.170616,69.9539405 48.0568721,69.9539405 C35.9431279,69.9539405 26.1611374,60.17195 26.1611374,48.0582057 C26.1611374,35.9444618 36,26.1624713 48.0568721,26.1624713 Z M79.393365,8.07716322 C84.9214474,8.07716322 89.4028436,12.5585595 89.4028436,18.0866419 C89.4028436,23.6147243 84.9214474,28.0961206 79.393365,28.0961206 C73.8652826,28.0961206 69.3838864,23.6147243 69.3838864,18.0866419 C69.3838864,12.5585595 73.8652826,8.07716322 79.393365,8.07716322 Z"/>
</svg>
