<svg xmlns="http://www.w3.org/2000/svg" width="107" height="128" viewBox="0 0 107 128">
  <g fill="none">
    <path fill="#FF3E00" d="M99.6079235,16.9170938 C87.7353858,-0.0755903859 64.2871231,-5.11228634 47.3329105,5.68978257 L17.5571558,24.6672355 C9.42379395,29.7841051 3.82163749,38.0899135 2.1244546,47.5478994 C0.704085282,55.4269814 1.9525061,63.5547329 5.6720603,70.6443242 C3.12332333,74.5106057 1.38497425,78.8535273 0.562074265,83.4106128 C-1.15151697,93.0502225 1.0900238,102.97373 6.78065854,110.94086 C18.6557081,127.935142 42.1040848,132.969669 59.0556717,122.168171 L88.8314265,103.190718 C96.9653631,98.074442 102.56771,89.7683508 104.264128,80.3100538 C105.684308,72.4310645 104.436866,64.3034714 100.719148,57.2130585 C103.26722,53.3468655 105.004839,49.0041193 105.826965,44.4473405 C107.541689,34.8077047 105.300049,24.8837596 99.6083803,16.9170938"/>
    <path fill="#FFF" d="M44.4212605,112.557409 C34.8206485,115.053741 24.6821837,111.295728 19.0281189,103.144962 C15.6042632,98.3526317 14.2555217,92.3829914 15.2864814,86.5841683 C15.459297,85.6417305 15.6971193,84.7123803 15.9982444,83.8027774 L16.5591589,82.092399 L18.0851157,83.2132002 C21.6091969,85.8025937 25.5494983,87.7713155 29.7361954,89.0345151 L30.8431793,89.3703559 L30.7412053,90.4751701 C30.6059428,92.0468991 31.031523,93.615761 31.9425123,94.9036767 C33.644065,97.3588567 36.6965761,98.4918309 39.587941,97.7413648 C40.2352495,97.5683541 40.8522331,97.2971985 41.417422,96.937334 L71.202757,77.9564542 C72.6763503,77.0285561 73.6919019,75.5238354 74.0011632,73.8101178 C74.3098892,72.0623576 73.9035848,70.2638383 72.8735102,68.8185272 C71.1709407,66.3628376 68.1176661,65.2293818 65.2251125,65.9792403 C64.5786564,66.1522651 63.9624935,66.4232229 63.3980297,66.7827001 L52.0322032,74.0281118 C50.1632337,75.2164397 48.1236102,76.112118 45.9839875,76.6841193 C36.3834564,79.180305 26.2451511,75.422255 20.5911884,67.2715586 C17.1671948,62.479333 15.8184386,56.509669 16.8495508,50.7108788 C17.8702439,45.0218041 21.2405018,40.0259876 26.1334162,36.9491756 L55.9161247,17.966697 C57.7858884,16.776418 59.8269689,15.8796135 61.968337,15.3074919 C71.5688062,12.8113701 81.7070242,16.5693592 87.3610219,24.7199383 C90.7848777,29.5122693 92.1336195,35.4819097 91.1026597,41.2807326 C90.9290988,42.2230068 90.6912894,43.1523059 90.3908966,44.0621236 L89.8299823,45.772502 L88.3048245,44.6534134 C84.7809916,42.0625388 80.8403117,40.0929135 76.6529455,38.8295865 L75.5459616,38.4936317 L75.6479356,37.3888174 C75.7820351,35.8172286 75.3565602,34.2487956 74.4466286,32.9604251 C72.7450759,30.505245 69.6925648,29.3722705 66.8011998,30.1227368 C66.1538913,30.2957476 65.5369081,30.566903 64.9717191,30.9267675 L35.186384,49.9084468 C33.7129927,50.8356152 32.698013,52.3402406 32.3901477,54.0536411 C32.0795109,55.8013195 32.4851326,57.6004833 33.5156308,59.0458028 C35.218222,61.5014645 38.2714766,62.6349132 41.1640285,61.8850897 C41.8111763,61.7117241 42.4280698,61.4405914 42.9933951,61.0810589 L54.3577371,53.8383879 C56.2258976,52.6484933 58.26543,51.7520216 60.4052675,51.1802107 C70.0057986,48.6840249 80.1441043,52.442075 85.7980667,60.5927713 C89.2220605,65.384997 90.5708164,71.354661 89.5397045,77.1534512 C88.5183422,82.8428214 85.1483271,87.8390658 80.2558392,90.9173241 L50.4730161,109.898204 C48.6032524,111.088483 46.5621718,111.985287 44.4208037,112.557409"/>
  </g>
</svg>
